<?xml version="1.0" standalone="no"?>
<!DOCTYPE svg PUBLIC "-//W3C//DTD SVG 20010904//EN"
 "http://www.w3.org/TR/2001/REC-SVG-20010904/DTD/svg10.dtd">
<svg version="1.0" xmlns="http://www.w3.org/2000/svg"
 width="1280.000000pt" height="1280.000000pt" viewBox="0 0 1280.000000 1280.000000"
 preserveAspectRatio="xMidYMid meet">

<g transform="translate(0.000000,1280.000000) scale(0.100000,-0.100000)"
fill="#000000" stroke="none">
<path d="M6255 10494 c-513 -30 -943 -121 -1368 -288 -74 -29 -93 -33 -120
-25 -18 6 -88 10 -157 11 -97 0 -143 -5 -205 -21 -191 -51 -401 -194 -529
-361 -61 -79 -142 -218 -167 -286 -19 -51 -42 -79 -160 -199 -154 -157 -194
-201 -300 -336 -396 -498 -675 -1123 -788 -1759 -47 -266 -56 -381 -55 -705 0
-261 4 -337 22 -480 46 -344 123 -648 247 -964 l36 -94 -28 -30 c-15 -17 -35
-38 -43 -47 -43 -42 -164 -189 -196 -237 -59 -89 -166 -334 -152 -348 2 -3 40
19 84 47 169 108 356 185 480 195 l61 5 63 -103 c67 -109 150 -228 257 -367
34 -45 63 -84 63 -87 0 -3 -124 -5 -275 -5 l-275 0 0 -755 0 -755 335 0 c369
0 458 10 600 65 89 36 224 124 269 177 20 23 37 40 39 37 2 -2 18 -25 35 -50
71 -106 208 -198 347 -234 181 -48 432 -16 560 71 47 32 60 34 61 9 1 -11 2
-32 3 -47 l1 -28 1100 0 c1004 0 1100 1 1100 16 0 11 5 14 18 9 137 -53 355
-67 486 -31 161 43 290 131 369 248 13 20 27 34 31 31 3 -4 6 -66 6 -140 l0
-133 544 0 544 0 33 97 34 98 50 3 c84 5 94 -3 129 -104 l31 -89 353 -3 353
-2 -6 22 c-18 63 -176 505 -413 1158 -31 85 -70 193 -87 240 l-30 85 -73 3
c-39 2 -72 7 -72 13 0 5 9 20 21 32 39 41 167 214 232 313 409 626 627 1325
644 2069 11 471 -50 889 -194 1330 -160 490 -430 974 -751 1345 -137 160 -397
415 -500 493 -35 27 -62 58 -79 91 -86 172 -244 351 -380 430 -200 118 -395
163 -572 132 l-93 -16 -152 49 c-306 100 -607 162 -926 190 -133 12 -407 20
-495 15z m390 -154 c225 -15 475 -53 679 -105 225 -56 316 -86 316 -102 0 -7
-4 -13 -9 -13 -18 0 -173 -155 -219 -218 -51 -71 -109 -174 -199 -352 -32 -63
-59 -117 -60 -119 -1 -2 -40 13 -87 33 -108 47 -250 96 -276 96 -25 0 -25 4 1
39 12 16 18 34 15 40 -8 13 -127 14 -198 2 -56 -9 -56 -8 -28 72 30 84 28 90
-22 82 -53 -9 -162 -52 -268 -105 -44 -22 -82 -40 -84 -40 -8 0 -26 101 -26
150 0 28 -4 50 -9 50 -11 0 -60 -38 -89 -70 -35 -37 -160 -198 -164 -210 -2
-6 -59 -31 -128 -56 -69 -25 -167 -67 -218 -95 l-93 -50 -21 48 c-74 170 -132
279 -207 383 -49 68 -173 200 -222 236 -28 20 -47 40 -42 45 14 14 192 75 343
118 428 121 878 169 1315 141z m1593 -223 c72 -26 228 -115 218 -125 -3 -3
-12 1 -21 8 -19 16 -47 -4 -38 -27 5 -13 3 -15 -13 -8 -10 5 -62 11 -115 13
-77 3 -109 0 -162 -17 -68 -21 -134 -57 -177 -96 -102 -94 -131 -130 -186
-231 -80 -148 -117 -279 -139 -504 -9 -85 -20 -177 -25 -205 -9 -48 -7 -54 44
-155 30 -58 64 -139 76 -180 12 -41 32 -111 45 -155 13 -44 36 -124 51 -178
15 -55 35 -116 45 -138 11 -21 19 -43 19 -49 0 -6 7 -24 15 -40 15 -29 15 -30
-7 -28 -42 2 -262 -23 -318 -37 -30 -8 -104 -26 -165 -41 -60 -15 -168 -47
-240 -71 -115 -39 -150 -54 -205 -84 -8 -5 -35 -18 -60 -29 -59 -28 -81 -60
-40 -60 18 0 121 43 174 72 27 15 209 77 276 94 30 8 89 24 130 35 41 11 84
22 95 24 11 2 38 9 60 14 45 11 215 30 288 33 41 1 52 -3 73 -25 24 -26 24
-27 4 -27 -26 0 -26 -25 0 -68 17 -27 18 -37 9 -48 -7 -8 -8 -18 -4 -22 4 -4
10 -1 12 6 7 18 20 15 26 -8 3 -13 0 -20 -9 -20 -8 0 -17 -13 -21 -30 l-6 -31
-251 7 c-270 7 -658 -8 -743 -30 -54 -14 -63 -35 -20 -47 15 -4 25 -4 23 0
-14 23 820 42 949 21 28 -4 41 -8 30 -9 -17 -1 -18 -3 -5 -11 10 -6 11 -10 3
-10 -8 0 -13 -14 -13 -35 0 -34 -57 -141 -97 -183 -10 -10 -29 -31 -43 -48
-50 -59 -47 -59 -171 -5 -124 52 -227 88 -359 124 -79 21 -85 25 -93 54 -12
39 -26 46 -62 27 -15 -8 -37 -14 -50 -14 -79 0 -115 -33 -50 -46 19 -3 35 -9
35 -12 0 -12 -74 -82 -87 -82 -7 0 -13 -4 -13 -9 0 -8 -117 -58 -192 -81 -63
-19 -236 -17 -290 4 -45 18 -49 18 -105 0 -71 -23 -284 -27 -305 -6 -6 6 -20
12 -30 12 -10 0 -40 10 -68 22 -35 15 -46 24 -38 31 9 5 6 6 -8 3 -13 -4 -28
1 -42 14 -11 11 -26 20 -32 20 -5 0 -10 5 -10 10 0 6 5 10 11 10 5 0 7 5 4 10
-4 6 7 15 24 21 54 19 38 34 -32 29 -31 -2 -57 15 -53 33 1 7 1 9 -1 5 -2 -4
-10 -5 -17 -2 -7 3 -19 -2 -26 -11 -7 -8 -28 -15 -50 -15 -36 0 -58 -19 -45
-40 9 -14 -17 -26 -185 -84 -91 -31 -172 -61 -180 -67 -8 -5 -38 -20 -65 -32
-28 -13 -57 -30 -65 -38 -8 -8 -41 -26 -72 -41 l-57 -27 -88 87 c-103 101
-132 149 -116 184 6 14 7 31 2 39 -6 13 6 20 64 38 79 24 251 55 392 71 50 6
209 11 355 11 146 0 275 3 288 6 25 6 30 28 7 37 -38 14 -395 18 -525 6 -74
-7 -148 -13 -165 -14 -16 -1 -34 -4 -40 -8 -5 -3 -37 -9 -70 -13 -67 -7 -272
-53 -294 -65 -30 -16 -90 107 -62 125 5 3 12 18 16 34 3 16 17 41 30 56 21 22
22 27 9 32 -9 3 -34 -4 -56 -16 l-41 -21 34 39 c19 21 44 51 57 66 21 25 27
27 75 21 28 -3 101 -8 162 -12 97 -6 154 -12 245 -29 14 -3 50 -9 80 -14 111
-19 275 -52 290 -58 8 -4 25 -8 36 -9 12 -1 67 -17 122 -34 99 -31 142 -35
144 -15 2 19 -99 58 -252 99 -36 10 -72 22 -81 26 -8 4 -46 11 -82 15 -37 4
-65 11 -62 15 3 4 -10 8 -28 8 -17 0 -95 9 -171 21 -76 12 -205 24 -287 28
-155 6 -180 12 -162 35 10 12 33 97 65 240 7 31 15 55 19 52 4 -2 11 1 15 7 4
8 3 9 -4 5 -15 -9 -16 -17 14 115 25 112 87 301 108 328 14 18 37 81 39 106 2
15 -4 20 -21 19 -21 -1 -23 3 -17 25 4 14 7 35 7 46 1 19 -15 179 -28 274 -4
34 -3 42 8 36 7 -3 6 0 -3 7 -9 7 -24 47 -34 88 -19 85 -24 96 -94 240 -48 97
-80 145 -138 207 -13 13 -23 28 -23 33 0 6 -4 10 -10 10 -5 0 -31 16 -56 35
-89 68 -145 87 -289 95 -71 5 -131 9 -133 9 -2 1 0 6 3 11 3 6 -1 10 -10 10
-9 0 -14 -4 -10 -9 3 -5 -9 -9 -27 -9 l-32 1 35 29 c83 70 263 128 400 128
109 0 248 -49 348 -123 116 -85 177 -157 165 -193 -4 -13 -3 -15 3 -6 7 9 19
0 44 -35 37 -52 44 -64 132 -233 32 -63 66 -127 74 -142 15 -29 9 -73 -8 -62
-5 3 -8 2 -7 -3 3 -9 -86 -185 -115 -226 -12 -18 -16 -32 -10 -38 9 -9 66 38
193 159 49 48 216 162 236 162 7 0 14 4 16 9 3 11 228 81 258 81 10 0 21 -7
24 -16 11 -28 25 -11 75 90 53 107 50 107 66 -1 7 -43 19 -61 29 -44 3 5 45
35 94 67 48 32 89 60 92 63 3 4 16 11 30 17 57 27 98 44 104 44 3 0 -5 -28
-18 -62 -13 -35 -27 -78 -31 -95 -9 -43 7 -43 94 1 73 37 124 56 153 56 16 0
11 -11 -28 -65 -25 -36 -44 -69 -40 -72 6 -6 216 -12 216 -6 0 2 -18 10 -40
19 -65 26 -39 28 56 4 164 -41 306 -107 389 -182 49 -44 164 -124 193 -136 15
-5 14 -2 -3 23 -10 17 -29 49 -41 71 -12 23 -39 66 -59 97 -35 53 -36 57 -25
94 7 21 16 40 19 43 3 3 22 39 41 80 19 41 49 101 67 132 17 31 34 67 38 78 4
12 14 29 22 38 8 10 40 53 73 97 80 110 144 166 260 226 125 64 307 75 448 26z
m192 -137 c0 -5 -4 -10 -9 -10 -6 0 -13 5 -16 10 -3 6 1 10 9 10 9 0 16 -4 16
-10z m-75 -94 c108 -30 146 -55 262 -173 119 -120 167 -182 179 -227 5 -21 9
-24 15 -14 7 10 9 9 10 -4 2 -28 3 -30 32 -86 15 -29 31 -81 37 -115 13 -80
13 -279 0 -387 -27 -218 -141 -454 -287 -590 -196 -184 -339 -243 -558 -232
-38 2 -41 5 -70 64 -16 34 -31 65 -33 70 -2 4 5 8 16 8 23 0 142 58 142 70 0
4 -19 11 -42 15 -45 8 -60 21 -150 128 -64 77 -80 110 -69 139 5 13 34 56 65
96 57 74 56 90 -6 52 -18 -11 -37 -20 -41 -20 -15 0 55 118 109 184 30 36 72
76 94 88 22 13 40 27 40 32 0 5 -28 6 -63 4 -88 -7 -196 -59 -271 -131 -33
-31 -60 -55 -61 -54 -23 39 -30 86 -28 207 5 347 121 646 305 788 52 39 148
85 198 95 52 9 127 6 175 -7z m-4155 -10 c0 -3 -4 -8 -10 -11 -5 -3 -10 -1
-10 4 0 6 5 11 10 11 6 0 10 -2 10 -4z m-35 -16 c3 -5 1 -10 -4 -10 -6 0 -11
5 -11 10 0 6 2 10 4 10 3 0 8 -4 11 -10z m-45 -45 c-7 -8 -17 -15 -22 -15 -11
0 14 29 26 30 5 0 3 -7 -4 -15z m340 4 c85 -19 171 -70 247 -147 40 -40 73
-79 73 -87 0 -8 4 -15 9 -15 11 0 87 -165 111 -242 41 -136 61 -269 63 -418 1
-80 -2 -155 -7 -168 -7 -22 -9 -22 -47 22 -74 83 -203 139 -311 134 l-63 -3
54 -29 c92 -48 197 -170 217 -253 l6 -24 -36 21 c-19 12 -43 20 -52 18 -12 -2
-3 -18 39 -65 87 -98 87 -114 -5 -234 -70 -92 -89 -107 -140 -115 -32 -6 -35
-9 -26 -24 10 -16 70 -41 131 -54 30 -7 33 -20 16 -79 -14 -52 -37 -59 -204
-60 -135 -1 -143 0 -225 31 -262 100 -482 355 -553 642 -26 102 -40 265 -34
390 4 93 10 128 31 179 14 36 26 72 26 80 0 14 2 14 11 1 8 -12 9 -9 5 12 -3
15 -2 30 4 33 6 3 7 -1 4 -9 -12 -30 5 -16 20 17 8 17 25 55 37 82 13 28 23
55 22 61 0 6 6 11 15 10 8 0 40 30 71 67 151 182 327 264 491 226z m4319 -233
c15 -35 17 -45 6 -36 -8 7 -15 19 -15 26 0 8 -5 14 -11 14 -5 0 -7 4 -4 10 3
5 1 20 -6 32 -6 13 -7 19 -1 13 5 -5 19 -32 31 -59z m-41 19 c-3 -3 -9 2 -12
12 -6 14 -5 15 5 6 7 -7 10 -15 7 -18z m69 -107 c-3 -7 -5 -2 -5 12 0 14 2 19
5 13 2 -7 2 -19 0 -25z m334 -265 c502 -515 821 -1078 995 -1753 119 -463 150
-937 93 -1400 -75 -604 -279 -1157 -615 -1660 -88 -133 -169 -240 -182 -240
-8 0 -81 199 -278 753 l-127 357 -333 0 -334 0 -4 23 c-3 12 -12 62 -21 111
-9 49 -20 98 -25 110 -6 17 5 35 67 101 91 99 162 202 250 365 l68 125 95 6
c176 10 333 92 395 206 11 21 36 63 55 93 20 30 41 69 49 85 7 17 20 45 29 63
8 17 54 69 101 114 47 45 209 201 358 347 293 285 303 297 272 362 -8 15 -96
111 -196 212 -171 172 -183 187 -183 221 0 74 -37 116 -123 141 -31 9 -72 29
-89 43 -26 22 -41 27 -82 25 -42 -1 -53 3 -69 23 -23 29 -46 30 -80 4 -37 -29
-102 -18 -122 21 -26 50 -135 67 -227 36 -24 -8 -95 -20 -158 -26 -63 -6 -128
-14 -144 -17 -24 -5 -11 11 78 96 117 113 179 194 233 303 82 165 118 307 129
497 6 104 -7 310 -22 368 -4 12 -2 22 3 22 6 0 70 -62 144 -137z m-5536 -246
c1 -147 5 -202 23 -287 66 -321 257 -590 515 -728 l55 -30 -46 -5 c-26 -3 -73
-9 -104 -13 -108 -12 -58 -24 101 -24 91 0 172 -5 188 -11 40 -15 201 -49 234
-49 15 0 31 -5 34 -10 3 -6 -21 -40 -54 -78 -32 -37 -72 -82 -88 -100 -23 -27
-42 -36 -113 -52 -93 -22 -200 -62 -182 -68 10 -3 120 17 339 62 35 7 65 11
67 9 2 -3 -6 -34 -20 -69 -13 -36 -24 -76 -24 -89 0 -26 -1 -27 -120 -94 -174
-98 -157 -117 24 -28 74 37 140 67 148 67 8 0 21 -23 32 -57 19 -65 95 -227
119 -258 16 -19 16 -18 17 22 0 23 5 45 10 48 6 3 10 0 10 -8 0 -26 80 -132
147 -193 62 -58 65 -63 56 -90 -8 -25 -22 -33 -96 -60 -105 -38 -145 -64 -231
-153 -68 -71 -86 -102 -86 -151 0 -24 -8 -33 -53 -59 -68 -39 -180 -127 -280
-221 -86 -81 -157 -187 -157 -237 0 -28 -10 -38 -87 -95 -115 -83 -198 -137
-368 -238 -125 -75 -216 -132 -395 -248 -59 -39 -291 -212 -352 -264 -21 -17
-40 -29 -44 -26 -6 7 -61 153 -98 264 -73 216 -135 513 -167 794 -16 136 -16
582 0 730 70 678 305 1311 684 1848 55 78 186 245 236 302 29 33 122 130 124
130 1 0 2 -82 2 -183z m5465 -954 c12 -32 29 -66 37 -75 14 -15 14 -18 1 -18
-8 0 -24 -11 -36 -25 -12 -14 -29 -25 -38 -25 -9 0 -14 -5 -12 -12 3 -7 27
-11 71 -9 44 2 67 -1 67 -9 0 -7 -16 -9 -48 -4 -46 6 -48 5 -64 -28 -14 -27
-17 -29 -17 -11 -1 34 -19 37 -45 7 -21 -25 -27 -27 -47 -17 l-24 12 23 0 c22
1 52 22 52 36 0 3 -16 3 -35 -1 -31 -5 -35 -4 -35 15 0 17 6 21 35 21 19 0 35
5 35 11 0 5 -8 9 -17 8 -41 -4 -60 3 -90 31 -30 28 -37 30 -80 25 -70 -8 -362
-37 -403 -40 -19 -2 -38 -3 -42 -4 -12 -2 -9 -55 11 -186 10 -66 17 -123 15
-126 -4 -6 -72 5 -79 13 -1 1 -12 72 -24 156 -32 224 -35 221 264 251 116 12
227 23 248 26 32 5 37 2 37 -14 0 -30 11 -51 27 -51 8 0 12 4 9 9 -9 15 44 76
72 82 15 4 46 7 69 8 l42 1 21 -57z m75 -41 c-3 -3 -11 0 -18 7 -9 10 -8 11 6
5 10 -3 15 -9 12 -12z m566 -303 c322 -331 325 -335 272 -387 -170 -162 -360
-346 -507 -491 l-179 -176 -9 30 c-4 17 -5 37 -3 46 3 9 145 154 315 322 171
169 310 312 310 319 0 7 -39 54 -88 104 -438 454 -429 446 -449 436 -30 -16
-768 -773 -771 -791 -1 -9 13 -32 33 -51 19 -18 35 -39 35 -44 0 -6 -15 -19
-33 -29 l-32 -19 -52 57 c-35 38 -53 66 -53 83 0 20 71 98 338 366 186 188
378 383 428 434 74 76 95 92 120 92 27 0 67 -37 325 -301z m-488 239 c-15 -15
-24 -17 -44 -9 -13 5 -19 10 -12 10 7 1 10 7 7 14 -3 10 5 12 32 9 35 -4 36
-5 17 -24z m-1013 -28 c0 -16 -5 -30 -12 -30 -17 0 -98 41 -98 49 0 5 25 9 55
10 55 2 55 1 55 -29z m1400 -20 c6 -11 9 -20 7 -20 -2 0 -12 9 -22 20 -10 11
-13 20 -7 20 6 0 16 -9 22 -20z m-1137 -18 c14 -16 15 -23 4 -45 -13 -29 -35
-35 -55 -15 -18 18 -15 55 6 67 23 14 27 14 45 -7z m647 -52 c-24 -34 -45 -39
-52 -12 -8 29 1 39 38 40 l35 1 -21 -29z m289 3 c2 -1 -4 -14 -13 -28 -9 -14
-12 -25 -6 -25 5 0 10 5 10 11 0 5 5 7 12 3 7 -5 5 -11 -7 -21 -32 -23 -45
-16 -38 19 4 22 3 29 -5 24 -7 -4 -12 -14 -12 -22 0 -8 -4 -14 -10 -14 -18 0
-11 33 12 57 17 19 24 21 37 11 9 -7 18 -13 20 -15z m-654 -23 c0 -19 -5 -46
-12 -60 -7 -14 -13 -31 -13 -38 0 -24 -25 -6 -26 19 0 13 -3 31 -6 39 -4 8 -9
22 -11 30 -3 8 -6 -1 -7 -20 -1 -19 -2 -50 -3 -68 -2 -35 7 -50 18 -32 8 13
25 13 25 0 0 -6 -8 -20 -18 -30 -17 -18 -20 -18 -40 -4 -12 8 -22 23 -21 32 0
14 2 13 9 -3 7 -16 9 -14 7 13 -1 17 -3 32 -5 32 -16 0 -34 -39 -37 -82 -2
-29 -8 -54 -15 -56 -6 -2 -22 -15 -35 -28 -19 -19 -31 -23 -52 -18 -51 12 -52
16 -66 158 -1 11 9 26 25 35 14 9 39 26 55 39 100 81 103 83 167 80 l61 -3 0
-35z m163 -23 l44 -13 -73 -55 c-58 -43 -79 -67 -105 -116 -34 -65 -33 -70 10
-53 47 17 38 -9 -14 -41 -27 -17 -57 -40 -65 -52 -20 -28 -19 -6 1 41 10 20
19 46 21 57 2 11 20 71 40 133 37 110 38 112 68 112 16 0 50 -6 73 -13z m-678
-14 c0 -10 3 -42 7 -71 6 -50 5 -52 -15 -45 -11 5 -34 34 -50 65 -33 62 -32
64 31 67 19 1 27 -4 27 -16z m1207 -115 c-7 -20 12 -49 31 -47 34 3 42 -1 42
-22 0 -11 9 -32 20 -46 11 -14 23 -44 27 -67 4 -26 16 -49 36 -67 28 -26 28
-28 13 -51 -9 -14 -39 -35 -66 -48 -28 -13 -50 -26 -50 -30 0 -4 -21 -6 -47
-6 -62 1 -128 -13 -117 -24 5 -5 28 -5 52 0 35 6 42 5 38 -6 -3 -8 0 -26 6
-40 15 -33 0 -44 -63 -44 -62 0 -123 43 -138 97 -16 58 -14 84 9 90 15 4 20
14 20 37 0 25 11 45 45 81 24 27 47 46 50 43 12 -12 9 -61 -4 -66 -11 -3 -12
2 -7 24 l7 29 -16 -23 c-9 -13 -14 -29 -11 -37 7 -20 35 -19 43 1 3 8 12 13
21 9 8 -3 21 0 28 6 25 20 29 -19 5 -42 -11 -11 -20 -27 -20 -37 1 -16 2 -16
6 1 5 18 43 24 43 6 0 -5 -4 -7 -10 -4 -5 3 -10 -1 -10 -9 0 -9 5 -16 10 -16
6 0 13 -1 16 -2 3 -2 12 14 19 35 7 20 9 37 4 37 -5 0 -9 -5 -9 -12 0 -9 -3
-9 -12 0 -10 10 -10 15 0 21 11 6 10 10 -4 15 -16 6 -16 8 -4 17 11 7 8 8 -12
5 -15 -3 -32 -7 -37 -11 -6 -3 -15 11 -20 32 -15 52 -14 60 5 37 15 -18 15
-18 9 11 -11 49 -21 49 -70 -1 l-47 -49 7 45 c14 90 58 140 123 140 31 0 42
-4 39 -12z m-1183 -75 c24 -127 15 -143 -23 -40 -25 70 -25 67 -2 67 13 0 21
-9 25 -27z m386 17 c0 -5 -5 -10 -11 -10 -5 0 -7 5 -4 10 3 6 8 10 11 10 2 0
4 -4 4 -10z m-256 -12 c7 -27 49 -347 57 -433 4 -49 14 -136 23 -192 11 -72
13 -111 6 -128 -6 -14 -15 -37 -20 -52 -10 -24 -12 -25 -27 -11 -11 12 -29
119 -69 415 -30 219 -54 401 -54 406 0 13 80 8 84 -5z m-210 -113 c31 -14 65
-25 76 -25 11 0 20 -1 20 -2 0 -2 11 -74 23 -161 13 -86 20 -161 17 -165 -3
-4 -62 -50 -132 -101 -116 -84 -145 -111 -119 -111 12 0 99 60 185 127 82 64
77 69 95 -92 16 -143 27 -184 58 -216 23 -26 24 -30 18 -107 -9 -98 -11 -101
-160 -178 -61 -31 -153 -81 -206 -110 -54 -30 -101 -54 -105 -54 -5 0 -26 27
-46 60 -37 59 -37 60 -23 101 8 23 15 64 15 91 0 46 -3 53 -42 89 -23 21 -76
56 -118 79 -70 38 -77 44 -89 85 -7 24 -26 65 -42 90 -16 25 -29 47 -29 49 0
2 35 24 79 49 43 25 84 52 92 59 8 7 39 34 70 60 51 44 57 46 75 33 27 -20 36
-18 24 5 -9 17 -5 32 25 85 20 36 40 65 45 65 9 0 30 -62 30 -87 0 -28 20 -11
29 25 31 118 41 163 47 220 4 39 11 62 19 62 7 0 38 -11 69 -25z m861 -35 c0
-10 -8 -14 -22 -12 -12 2 -33 -2 -45 -9 -23 -12 -23 -11 2 15 26 28 65 32 65
6z m-1765 -26 c52 -14 111 -32 130 -39 121 -46 201 -79 239 -99 l44 -23 -31
-19 c-18 -10 -32 -22 -32 -26 0 -4 -7 -8 -15 -8 -8 0 -15 -3 -15 -8 0 -4 -18
-18 -40 -32 -22 -14 -40 -28 -40 -31 0 -4 -8 -9 -17 -12 -10 -4 -40 -20 -68
-37 -63 -38 -180 -94 -265 -126 -36 -14 -78 -32 -95 -41 -16 -8 -50 -21 -75
-28 -115 -33 -317 -109 -337 -127 -14 -13 -45 -23 -90 -29 -96 -12 -443 -12
-443 1 0 6 -5 10 -11 10 -7 0 -20 9 -29 20 -11 13 -47 27 -101 39 -46 10 -97
23 -114 29 -64 22 -171 52 -185 52 -14 0 -59 16 -235 81 -32 12 -81 35 -108
50 -26 16 -54 29 -62 29 -8 0 -15 5 -15 10 0 6 -4 10 -9 10 -6 0 -31 15 -57
33 -25 17 -53 37 -63 42 -28 18 -41 45 -21 45 6 0 27 10 48 23 53 32 231 109
258 111 12 0 20 3 18 5 -6 6 164 71 186 71 10 0 23 -7 30 -15 7 -8 34 -18 62
-21 58 -8 52 0 147 -176 18 -35 40 -71 48 -80 8 -9 12 -22 7 -29 -4 -7 -3 -10
4 -5 6 3 13 2 17 -4 12 -20 87 -51 143 -61 96 -16 434 -13 547 6 151 24 205
59 267 173 23 42 44 69 50 65 7 -3 8 -1 4 5 -4 6 9 36 28 66 31 48 41 57 87
70 29 9 58 25 66 36 18 26 29 25 143 -6z m1820 -18 c0 -8 -6 -17 -12 -19 -9
-4 -10 -8 -2 -14 6 -4 14 -21 18 -36 4 -15 11 -25 16 -22 5 3 11 2 13 -2 8
-13 -64 -13 -87 -1 l-20 11 21 8 c18 7 22 15 20 48 -2 34 1 41 15 41 10 0 18
-6 18 -14z m730 -6 c0 -5 -8 -10 -17 -11 -17 0 -17 -1 -2 -11 26 -17 4 -58
-30 -58 -19 0 -22 3 -12 9 16 10 6 31 -15 31 -26 0 3 38 33 43 16 2 31 5 36 6
4 0 7 -3 7 -9z m-890 -25 c0 -8 -4 -15 -10 -15 -5 0 -10 7 -10 15 0 8 5 15 10
15 6 0 10 -7 10 -15z m-380 -27 c0 -6 -3 -8 -7 -5 -3 4 -12 2 -20 -4 -13 -11
-19 2 -6 14 11 11 33 8 33 -5z m-2515 -76 l90 -19 11 -44 12 -44 1 42 1 42 58
6 c31 4 77 13 101 21 72 23 71 24 71 -68 0 -57 3 -78 10 -68 5 8 10 45 10 83
0 37 4 67 9 67 5 0 28 -7 51 -15 23 -8 69 -15 101 -15 59 0 59 0 59 -29 0 -17
5 -33 10 -36 6 -4 10 7 10 27 l0 33 78 18 c42 9 87 20 100 23 18 5 22 2 22
-18 0 -34 -29 -119 -49 -142 -71 -81 -399 -129 -638 -93 -113 17 -167 38 -190
73 -12 19 -63 166 -63 183 0 2 10 1 23 -2 12 -3 62 -14 112 -25z m3513 0 c2
-7 -6 -12 -17 -12 -21 0 -27 11 -14 24 9 9 26 2 31 -12z m-471 -33 c-6 -43
-17 -62 -24 -41 -3 7 -13 17 -24 23 -18 9 -19 6 -16 -68 2 -48 -2 -90 -10
-110 -18 -45 -33 -51 -33 -13 0 18 -7 45 -17 60 -14 25 -15 34 -3 76 16 56 71
114 109 114 22 0 23 -3 18 -41z m483 -61 c-5 -24 -9 -44 -9 -45 -1 -2 -1 -7
-1 -12 0 -5 -17 -25 -37 -45 -46 -44 -58 -36 -61 40 -3 74 14 102 65 106 21 2
41 2 44 1 4 -1 3 -22 -1 -45z m-841 -33 c1 -10 -5 -22 -14 -28 -13 -7 -14 -11
-5 -17 7 -4 11 -13 8 -20 -2 -8 -10 -3 -21 13 -13 20 -15 32 -7 52 11 29 33
29 39 0z m441 -46 c40 -50 83 -88 93 -82 4 3 6 11 3 19 -4 11 -2 12 15 1 17
-10 22 -9 34 6 13 18 19 18 84 6 72 -14 94 -28 44 -30 -23 0 -25 -2 -9 -8 16
-6 10 -14 -40 -54 -33 -26 -62 -47 -66 -47 -4 0 -10 12 -14 28 -14 63 -15 64
-42 57 -20 -5 -30 -1 -43 16 -16 21 -38 25 -99 17 -17 -2 -25 2 -28 15 -2 10
3 17 11 17 7 0 14 7 14 15 0 13 -3 13 -23 0 -32 -21 -54 -19 -54 5 0 14 7 20
23 20 13 0 32 7 43 15 26 19 26 19 54 -16z m-270 -56 c-1 -29 -16 -53 -41 -63
-41 -18 -87 -73 -95 -117 -4 -22 -17 -46 -31 -57 -21 -16 -24 -25 -20 -60 2
-23 10 -55 18 -73 12 -29 11 -34 -6 -52 -20 -23 -84 -28 -129 -11 -22 8 -26 7
-26 -10 0 -27 69 -97 104 -106 27 -6 40 -4 99 21 15 6 17 1 17 -35 0 -22 -5
-61 -11 -86 -10 -40 -10 -46 7 -59 11 -8 26 -15 35 -15 23 0 50 67 56 140 5
61 2 74 -36 165 -48 114 -51 135 -18 135 39 0 127 -107 127 -155 0 -8 5 -15
10 -15 6 0 10 -5 10 -10 0 -6 7 -22 16 -36 13 -19 20 -22 30 -13 8 6 14 20 14
30 0 11 6 19 13 20 9 0 9 2 -1 6 -6 2 -10 8 -7 13 3 5 0 21 -5 36 -6 16 -8 40
-5 54 l7 25 14 -25 15 -25 -7 25 c-9 35 -14 38 -30 15 -14 -19 -18 -16 -84 55
-38 41 -69 83 -70 94 0 16 5 18 43 13 35 -5 50 -14 90 -58 26 -29 47 -60 47
-69 0 -9 5 -21 12 -28 6 -6 13 -39 14 -72 2 -44 8 -67 24 -87 13 -16 20 -37
17 -50 -2 -12 0 -20 4 -17 18 10 8 -17 -10 -33 -11 -9 -18 -20 -15 -25 7 -10
-41 -80 -49 -71 -4 3 -7 1 -7 -6 0 -9 -9 -11 -27 -7 -19 5 -23 4 -14 -3 10 -6
-6 -15 -58 -32 -39 -13 -71 -27 -71 -31 0 -4 -45 -8 -101 -8 -73 0 -111 5
-135 16 -19 9 -36 15 -37 13 -2 -2 -18 -23 -35 -45 -18 -23 -32 -45 -32 -48 0
-3 -8 -14 -17 -24 -25 -25 -77 -93 -82 -104 -5 -13 -83 -99 -163 -178 -70 -69
-192 -140 -240 -140 -49 0 -182 32 -210 51 -15 11 -41 28 -58 39 -16 11 -33
20 -39 20 -5 0 -11 4 -13 8 -1 5 -25 23 -53 42 -27 18 -53 39 -57 46 -5 7 -28
25 -53 41 -25 15 -45 32 -45 37 0 4 -19 27 -42 50 -24 23 -52 59 -63 80 l-20
37 20 15 c11 8 28 21 37 29 10 8 29 17 43 21 14 3 25 10 25 15 0 5 7 9 16 9
15 0 74 29 84 41 12 14 80 29 104 23 15 -3 49 -32 77 -63 54 -60 101 -138 77
-129 -9 4 -13 -4 -14 -25 -1 -17 -6 -33 -12 -35 -5 -1 -8 -11 -5 -21 4 -17 14
-13 86 31 45 28 84 53 87 57 9 13 298 172 433 237 21 11 37 26 37 36 0 10 9
22 19 28 22 11 27 35 40 201 6 67 16 123 28 150 37 83 119 144 260 194 75 27
83 28 83 18z m301 -56 c-10 -9 -11 -8 -5 6 3 10 9 15 12 12 3 -3 0 -11 -7 -18z
m-88 -103 c50 -51 80 -126 70 -176 -4 -22 -3 -29 5 -24 7 4 12 1 12 -7 0 -8
-7 -17 -15 -21 -11 -4 -15 2 -15 24 0 17 -9 39 -20 50 -11 11 -20 23 -20 26 0
4 -8 14 -19 23 -25 22 -81 115 -81 135 0 30 38 17 83 -30z m70 -278 c-4 -17
-11 -23 -28 -22 -13 0 -21 5 -18 9 3 5 11 6 19 3 10 -4 14 2 14 20 0 14 4 23
9 20 4 -3 6 -16 4 -30z m-2650 -37 c124 -60 154 -237 57 -340 -41 -44 -67 -50
-79 -16 -7 17 -3 28 20 49 38 37 55 100 39 151 -16 55 -57 77 -144 77 -101 0
-135 -25 -161 -117 -9 -31 17 -84 59 -121 36 -31 36 -33 20 -57 -15 -23 -17
-24 -45 -10 -47 25 -96 83 -109 131 -15 53 -8 133 15 168 22 33 80 77 124 92
58 21 154 17 204 -7z m2602 -44 c6 -30 6 -30 -10 4 -17 38 -19 49 -6 36 5 -6
12 -23 16 -40z m-4229 -80 c100 -46 210 -101 221 -111 6 -6 25 -17 42 -24 34
-14 64 -64 56 -91 -4 -10 -18 -24 -33 -32 -114 -61 -145 -76 -197 -97 -33 -13
-75 -32 -93 -42 -18 -10 -42 -18 -53 -18 -11 0 -31 -7 -44 -16 -14 -9 -31 -14
-40 -11 -28 11 -27 -15 3 -44 41 -40 74 -106 67 -132 -5 -17 -4 -19 4 -7 8 12
11 11 17 -5 4 -11 12 -23 17 -26 5 -4 10 -20 11 -37 0 -17 4 -28 9 -25 4 2 10
-4 14 -14 19 -53 196 -311 225 -330 7 -4 69 -13 138 -18 99 -8 136 -16 175
-35 49 -24 50 -26 50 -70 0 -42 -2 -45 -28 -48 -46 -5 -45 -42 3 -97 26 -31
31 -53 13 -70 -14 -14 -17 -14 -32 0 -24 20 -41 19 -41 -4 0 -20 -28 -37 -41
-24 -4 4 -30 74 -59 154 l-52 146 -105 7 c-59 3 -130 6 -160 6 -30 0 -52 4
-49 9 3 5 -2 12 -12 15 -20 7 -35 17 -125 76 -37 24 -67 48 -67 52 0 4 -7 8
-15 8 -9 0 -18 7 -21 15 -4 8 -10 15 -15 15 -19 0 -170 149 -231 229 -18 24
-47 62 -65 85 -17 22 -32 45 -32 50 -1 5 -11 23 -24 40 -12 17 -31 49 -42 71
-11 22 -23 42 -26 45 -4 3 -9 15 -10 27 -13 75 300 326 480 384 64 21 111 19
167 -6z m1574 -320 c19 -24 47 -72 62 -107 l27 -63 71 0 c59 0 74 -4 86 -20
34 -46 8 -65 -96 -72 -77 -6 -81 -7 -86 -32 -22 -106 -58 -147 -118 -136 -40
8 -60 33 -86 109 l-17 51 -75 1 c-41 0 -79 4 -85 7 -18 11 -21 45 -6 66 12 18
25 21 84 21 48 0 69 4 69 13 0 40 100 207 124 207 6 -1 27 -21 46 -45z m299
18 c8 -8 24 -18 35 -23 24 -9 206 14 235 30 28 14 43 5 63 -38 26 -55 50 -236
40 -294 -5 -27 -6 -48 -1 -48 4 0 6 -96 4 -212 -3 -117 -5 -216 -5 -219 0 -3
-59 -9 -130 -12 -72 -4 -135 -9 -140 -12 -4 -3 -29 -68 -55 -145 -41 -122 -65
-175 -65 -141 0 6 -15 35 -34 64 -59 91 -160 163 -286 202 -45 14 -121 19
-399 26 -189 4 -348 6 -353 3 -4 -3 -8 -18 -8 -33 0 -24 -3 -28 -24 -24 -29 6
-31 15 -47 228 -8 111 -8 182 -2 230 15 101 53 297 62 315 6 11 34 17 102 22
85 7 171 23 344 63 33 8 69 17 80 20 14 4 31 -3 53 -23 32 -29 32 -29 17 -65
-15 -35 -17 -37 -64 -37 -42 0 -54 -5 -81 -32 -57 -56 -63 -71 -47 -110 8 -19
29 -46 46 -61 27 -23 42 -27 91 -27 l58 0 17 -50 c10 -30 30 -61 51 -80 32
-28 40 -30 109 -30 71 0 77 2 111 33 25 23 40 48 49 82 l12 50 66 3 c63 3 67
5 95 40 52 67 50 80 -15 153 -33 36 -39 39 -88 39 -53 0 -53 0 -70 42 -13 34
-14 43 -3 49 7 4 24 17 37 28 21 18 32 20 75 15 28 -4 57 -14 65 -21z m-2639
-1378 l5 -390 157 -3 157 -3 3 -67 c3 -65 3 -66 17 -37 18 40 96 252 125 340
57 172 197 540 209 547 15 10 308 10 323 0 11 -6 59 -134 183 -487 22 -60 75
-212 120 -337 45 -124 81 -229 81 -232 0 -4 -75 -5 -167 -4 l-168 3 -24 83
-24 82 -173 0 -173 0 -26 -85 -26 -85 -454 0 -455 0 0 528 c0 291 3 532 7 536
4 3 72 5 152 4 l146 -3 5 -390z m2182 385 c149 -22 248 -86 299 -195 49 -103
38 -246 -26 -329 -29 -38 -91 -82 -129 -92 -39 -9 -48 11 102 -209 41 -60 77
-112 78 -114 7 -8 81 192 263 699 80 223 83 229 96 240 8 7 72 9 171 8 l157
-3 97 -265 c53 -146 124 -344 159 -440 34 -96 76 -211 92 -255 16 -44 29 -86
29 -93 0 -10 -36 -12 -162 -10 l-161 3 -27 80 -27 80 -171 3 -171 2 -22 -72
c-13 -40 -27 -79 -32 -85 -7 -10 -78 -13 -292 -13 l-283 0 -70 123 c-38 67
-84 150 -103 185 -18 34 -37 62 -41 62 -5 0 -8 -83 -8 -185 l0 -185 -150 0
-150 0 0 535 0 535 208 0 c114 0 237 -5 274 -10z m2023 -135 l0 -140 -110 -5
-110 -5 -3 -387 -2 -388 -160 0 -160 0 0 390 0 390 -110 0 -110 0 0 138 c0 76
3 142 7 145 4 4 176 6 382 5 l376 -3 0 -140z m572 133 c8 -11 101 -264 265
-723 27 -77 65 -180 83 -230 18 -49 30 -93 26 -98 -4 -4 -79 -6 -165 -5 l-158
3 -26 83 -25 82 -173 0 -173 0 -27 -85 -26 -85 -159 0 c-88 0 -159 2 -159 4 0
2 14 41 31 87 17 46 45 127 64 179 106 299 275 761 285 781 10 18 23 19 169
19 115 0 161 -3 168 -12z m-5702 -587 c57 -25 109 -80 146 -154 77 -153 167
-294 233 -364 16 -18 28 -35 25 -37 -2 -3 -26 0 -52 6 -43 9 -55 18 -114 86
-105 123 -185 228 -278 366 l-87 129 43 -7 c24 -4 62 -15 84 -25z m4561 -682
c75 -18 197 -74 191 -87 -42 -92 -135 -262 -143 -262 -6 0 -18 8 -27 18 -27
29 -102 62 -156 69 -87 10 -141 -30 -125 -93 8 -30 30 -42 159 -84 126 -41
186 -71 240 -121 111 -102 125 -306 32 -452 -135 -211 -466 -261 -764 -116
-46 22 -87 47 -90 55 -4 12 107 229 139 271 7 9 23 2 59 -27 69 -54 149 -83
232 -84 63 -1 71 1 93 27 13 15 24 39 24 52 0 47 -37 72 -169 110 -156 45
-207 71 -264 134 -56 64 -72 120 -65 240 4 67 11 99 33 143 52 107 166 193
285 217 30 6 64 13 75 15 35 8 168 -6 241 -25z m-4237 -28 c130 -33 225 -86
306 -170 108 -112 150 -227 149 -401 -1 -96 -6 -127 -27 -189 -64 -184 -214
-315 -427 -372 -61 -16 -120 -21 -311 -26 -130 -3 -252 -3 -272 1 l-37 7 0
583 c0 320 3 586 8 590 4 5 124 6 267 3 220 -4 273 -8 344 -26z m891 -376 c6
-443 6 -447 72 -481 40 -21 120 -14 149 12 54 48 54 49 57 477 l3 397 177 -2
177 -3 3 -330 c1 -181 -2 -382 -7 -445 -9 -100 -15 -124 -46 -187 -81 -164
-226 -243 -447 -243 -167 0 -271 37 -363 129 -50 49 -76 92 -108 181 -18 51
-20 86 -24 463 -3 225 -2 415 1 423 5 12 35 14 178 12 l173 -3 5 -400z m1424
399 c14 -5 16 -27 16 -138 0 -72 -4 -137 -8 -143 -6 -9 -57 -13 -177 -15
l-170 -3 -3 -54 c-5 -80 2 -99 35 -98 16 1 90 0 166 -1 l137 -2 0 -135 0 -135
-170 0 -170 0 0 -80 0 -80 185 0 186 0 -3 -147 -3 -148 -300 0 c-165 0 -326 1
-357 3 l-58 4 0 582 c0 321 3 586 7 589 8 9 666 9 687 1z m446 -429 l5 -430
178 -3 177 -2 0 -154 0 -154 -102 -7 c-57 -3 -215 -5 -353 -3 l-250 3 -3 580
c-1 319 0 586 3 593 3 10 44 12 172 10 l168 -3 5 -430z m768 -156 l2 -586
-117 -5 c-65 -3 -146 -3 -180 0 l-63 4 0 589 0 589 178 -2 177 -3 3 -586z
m1812 431 l0 -160 -125 0 -125 0 -1 -402 c-1 -451 -1 -447 -19 -458 -8 -5 -86
-7 -174 -5 l-161 3 -5 428 -5 429 -121 3 c-110 2 -122 4 -127 22 -7 28 -9 279
-2 290 4 6 165 10 436 10 l429 0 0 -160z m719 -25 c149 -399 348 -954 353
-980 3 -19 -3 -20 -112 -23 -63 -1 -146 1 -184 5 l-69 8 -31 90 -31 90 -191 3
-192 2 -26 -84 c-14 -46 -26 -89 -26 -95 0 -6 -11 -13 -24 -17 -35 -8 -330 4
-334 15 -3 8 39 125 94 268 13 34 24 64 24 68 0 4 27 82 61 173 34 92 81 223
105 292 35 100 86 242 129 358 3 10 48 12 196 10 l191 -3 67 -180z"/>
<path d="M8340 10036 c14 -8 27 -12 29 -10 6 6 -1 11 -29 18 l-25 7 25 -15z"/>
<path d="M4288 9928 c9 -9 15 -9 24 0 9 9 7 12 -12 12 -19 0 -21 -3 -12 -12z"/>
<path d="M4560 9896 c0 -2 15 -9 33 -15 29 -10 30 -9 13 4 -18 14 -46 20 -46
11z"/>
<path d="M6785 9380 c-16 -7 -17 -9 -3 -9 9 -1 20 4 23 9 7 11 7 11 -20 0z"/>
<path d="M7162 9020 c-18 -11 -38 -17 -44 -14 -6 4 -8 3 -5 -3 4 -6 -26 -43
-66 -84 -41 -41 -96 -103 -125 -139 -70 -89 -144 -156 -207 -187 -63 -31 -96
-26 -122 17 -27 47 -43 38 -42 -22 1 -113 43 -163 135 -163 l55 0 -5 -30 c-12
-62 -17 -274 -9 -385 l8 -115 90 0 c50 -1 121 -7 160 -14 135 -26 214 -6 370
94 28 17 87 47 132 65 l82 34 -30 33 c-30 34 -31 58 -7 106 5 10 12 56 15 103
3 48 11 91 17 96 6 5 33 22 60 36 27 15 51 32 53 38 2 6 -16 16 -40 22 -32 9
-55 24 -87 59 -23 27 -60 67 -82 91 -22 24 -36 47 -32 54 4 7 3 8 -5 4 -6 -4
-32 6 -59 22 -60 38 -110 52 -191 52 l-64 0 67 51 c109 82 160 96 228 59 42
-22 57 -12 33 23 -8 13 -12 27 -8 32 5 4 3 5 -3 2 -7 -4 -18 1 -25 10 -8 9
-34 29 -58 45 -57 36 -138 39 -189 8z m121 -370 c150 -76 231 -313 165 -487
-28 -75 -124 -170 -217 -216 -60 -29 -74 -32 -161 -32 -74 1 -105 5 -140 21
-90 41 -151 116 -165 202 -9 58 6 53 29 -9 11 -33 35 -69 65 -99 76 -76 145
-79 224 -9 66 57 90 127 85 239 -5 98 -34 167 -92 217 -52 47 -95 58 -156 40
-27 -8 -50 -12 -50 -9 0 15 56 84 86 107 68 52 112 66 199 63 61 -3 91 -9 128
-28z m-285 -250 c7 -67 -61 -92 -101 -38 -19 26 -19 28 -3 53 37 56 98 47 104
-15z m62 -84 c15 -19 9 -56 -11 -69 -25 -16 -49 -1 -49 31 0 46 35 68 60 38z
m-170 -21 c0 -8 -7 -15 -15 -15 -8 0 -15 7 -15 15 0 8 7 15 15 15 8 0 15 -7
15 -15z"/>
<path d="M5510 9013 c-76 -28 -104 -47 -164 -110 -49 -52 -41 -69 20 -43 86
37 133 24 254 -73 24 -19 24 -20 2 -14 -33 8 -128 -17 -199 -52 -65 -33 -145
-105 -182 -164 -28 -45 -66 -73 -110 -80 -18 -3 -36 -8 -39 -11 -9 -10 29 -34
79 -51 l46 -16 6 -77 c4 -42 15 -110 26 -150 l19 -72 -29 -31 c-29 -31 -30
-49 -4 -49 24 0 106 -38 250 -115 44 -24 97 -47 118 -51 27 -4 35 -9 25 -15
-22 -14 86 2 275 41 21 4 57 3 79 -2 23 -5 44 -5 48 -1 32 38 44 350 18 469
l-14 61 56 0 c66 0 94 13 116 55 23 45 30 138 11 162 -14 19 -16 17 -36 -28
-21 -48 -21 -48 -58 -42 -50 9 -93 26 -93 37 0 5 -6 9 -13 9 -12 0 -57 44
-277 276 -107 113 -179 156 -230 137z m215 -374 c54 -20 163 -109 186 -150 9
-17 7 -17 -33 1 -65 30 -109 26 -160 -13 -78 -59 -118 -147 -118 -257 0 -159
101 -283 218 -265 55 8 123 72 164 155 25 51 27 53 28 24 0 -42 -45 -127 -88
-165 -64 -57 -134 -82 -228 -83 -75 0 -88 3 -156 37 -81 40 -177 127 -209 189
-10 20 -24 67 -30 106 -10 58 -9 79 6 137 22 88 32 110 74 168 58 78 165 134
258 136 18 1 57 -8 88 -20z m117 -226 c37 -34 8 -113 -42 -113 -27 0 -60 35
-60 63 0 57 61 87 102 50z m-104 -152 c-4 -35 -41 -37 -46 -2 -4 26 13 42 35
34 8 -3 13 -16 11 -32z m180 7 c2 -20 -2 -28 -18 -33 -29 -9 -44 8 -36 40 9
37 50 32 54 -7z"/>
<path d="M6056 7925 c-3 -8 -1 -15 4 -15 6 0 10 7 10 15 0 8 -2 15 -4 15 -2 0
-6 -7 -10 -15z"/>
<path d="M6245 7914 c-124 -47 -165 -89 -165 -169 0 -41 19 -94 42 -119 10
-11 18 -23 18 -26 0 -7 87 -70 97 -70 4 0 14 -6 22 -14 38 -34 98 -59 139 -58
32 0 54 9 93 36 27 20 55 34 61 30 6 -4 8 -3 5 3 -4 6 6 19 21 28 30 20 75 66
99 101 17 26 34 144 21 144 -4 0 -8 5 -8 11 0 20 -76 80 -130 101 -39 15 -83
22 -150 25 -83 3 -104 0 -165 -23z m296 -63 c105 -46 128 -97 75 -166 -22 -29
-31 -34 -42 -24 -18 15 -35 2 -69 -56 -66 -113 -140 -111 -230 5 -45 58 -69
73 -77 48 -7 -19 -47 24 -58 62 -12 41 -6 50 50 91 96 70 245 87 351 40z"/>
<path d="M5850 7490 c20 -13 33 -13 25 0 -3 6 -14 10 -23 10 -15 0 -15 -2 -2
-10z"/>
<path d="M8435 7840 c-3 -5 1 -10 9 -10 8 0 18 5 21 10 3 6 -1 10 -9 10 -8 0
-18 -4 -21 -10z"/>
<path d="M8695 7810 c-4 -6 6 -10 22 -10 22 0 25 2 13 10 -19 12 -27 12 -35 0z"/>
<path d="M8710 7760 c-8 -5 -13 -10 -10 -11 3 0 13 -2 23 -4 9 -2 17 3 17 11
0 16 -9 18 -30 4z"/>
<path d="M8530 7688 c0 -6 8 -20 17 -31 17 -18 17 -19 -1 -33 -28 -20 -14 -27
18 -10 15 8 23 17 18 20 -6 3 -13 20 -17 36 -6 28 -35 43 -35 18z"/>
<path d="M9300 7320 c0 -23 19 -34 47 -27 15 3 14 6 -7 15 -14 6 -19 11 -12
11 20 1 13 21 -8 21 -13 0 -20 -7 -20 -20z"/>
<path d="M9468 7301 c-27 -13 -40 -34 -15 -26 6 2 31 9 55 15 23 6 42 15 42
19 0 13 -49 8 -82 -8z"/>
<path d="M5145 7150 c-3 -6 1 -7 9 -4 18 7 21 14 7 14 -6 0 -13 -4 -16 -10z"/>
<path d="M6230 6894 c0 -6 25 -19 56 -29 66 -21 176 -16 235 9 20 8 39 12 43
9 3 -4 6 0 6 8 0 12 -30 14 -170 14 -118 0 -170 -3 -170 -11z"/>
<path d="M6458 6813 c7 -3 16 -2 19 1 4 3 -2 6 -13 5 -11 0 -14 -3 -6 -6z"/>
<path d="M9031 6634 c0 -11 3 -14 6 -6 3 7 2 16 -1 19 -3 4 -6 -2 -5 -13z"/>
<path d="M9038 6483 c7 -3 16 -2 19 1 4 3 -2 6 -13 5 -11 0 -14 -3 -6 -6z"/>
<path d="M9061 6377 c-13 -21 -12 -21 5 -5 10 10 16 20 13 22 -3 3 -11 -5 -18
-17z"/>
<path d="M9161 6724 c0 -11 3 -14 6 -6 3 7 2 16 -1 19 -3 4 -6 -2 -5 -13z"/>
<path d="M4947 4755 c-16 -50 -77 -279 -77 -289 0 -8 175 -8 182 0 6 5 -30
146 -70 279 l-18 60 -17 -50z"/>
<path d="M6144 4857 c-3 -8 -3 -56 -2 -108 l3 -94 47 -3 c101 -7 164 57 139
139 -9 29 -21 42 -54 58 -49 24 -125 28 -133 8z"/>
<path d="M7112 4637 c-23 -84 -42 -159 -42 -165 0 -17 180 -17 180 1 1 20 -84
317 -91 317 -3 0 -24 -69 -47 -153z"/>
<path d="M8736 4782 c-5 -9 -86 -305 -86 -316 0 -4 43 -6 95 -6 52 0 95 2 95
5 0 9 -91 319 -94 323 -2 2 -7 -1 -10 -6z"/>
<path d="M3262 3253 l3 -268 78 2 c135 3 229 52 268 137 22 49 25 172 5 227
-18 52 -64 108 -105 128 -47 24 -129 41 -197 41 l-54 0 2 -267z"/>
<path d="M9328 3465 c-14 -23 -89 -328 -84 -341 4 -11 28 -14 101 -14 53 0 95
4 95 9 0 7 -67 230 -103 346 -2 6 -5 6 -9 0z"/>
<path d="M10213 2643 c13 -3 17 -15 17 -49 0 -24 5 -44 10 -44 6 0 10 20 10
44 0 34 4 46 18 49 9 3 -3 5 -28 5 -25 0 -37 -2 -27 -5z"/>
<path d="M10298 2628 c-2 -13 -1 -36 3 -53 6 -29 7 -28 9 10 l2 40 15 -37 c9
-21 19 -38 23 -38 5 0 14 15 21 33 l12 32 7 -35 c7 -32 7 -31 9 18 1 39 -2 52
-14 52 -8 0 -17 -14 -21 -35 -7 -40 -20 -38 -29 5 -8 35 -31 40 -37 8z"/>
</g>
</svg>
